<svg xmlns="http://www.w3.org/2000/svg" xmlns:xlink="http://www.w3.org/1999/xlink" width="375" height="812" viewBox="0 0 375 812"><defs><style>.a{fill:#fff;}.b{fill:url(#a);}.c{fill:url(#b);}.d{clip-path:url(#c);}.e{clip-path:url(#d);}</style><linearGradient id="a" x1="0.681" y1="0.381" x2="0.091" y2="0.921" gradientUnits="objectBoundingBox"><stop offset="0" stop-color="#56abfd"/><stop offset="1" stop-color="#252a9c"/></linearGradient><linearGradient id="b" x1="0.045" y1="0.128" x2="0.786" y2="0.778" xlink:href="#a"/><clipPath id="c"><rect class="a" width="375" height="812"/></clipPath><clipPath id="d"><rect class="b" width="275.546" height="297.24"/></clipPath></defs><g class="d"><g class="e" transform="translate(190.523 -113)"><path class="b" d="M49.756,54.184C61.181,11.626,106.2-10.773,154.28,5.124c40.48,13.387,114.568,112.092,120.872,172.994,5.986,57.834-56.8,114.866-152.307,118.864C11.13,301.657-14.6,241.828,6.975,204.424c53.2-92.237,29-98.9,42.781-150.239" transform="translate(0 0)"/></g><g class="e" transform="translate(188.916 633.847) rotate(90)"><path class="c" d="M49.756,243.056c11.425,42.559,56.446,64.957,104.524,49.06,40.48-13.387,114.568-112.092,120.872-172.994C281.138,61.288,218.356,4.256,122.845.258,11.13-4.416-14.6,55.413,6.975,92.817c53.2,92.237,29,98.9,42.781,150.239" transform="translate(0 0)"/></g></g></svg>